<svg xmlns="http://www.w3.org/2000/svg" width="275.2" height="36.36" viewBox="0 0 275.2 36.36"><g id="svgGroup" fill="#000" fill-rule="evenodd" stroke="#000" stroke-linecap="round" stroke-width=".945" font-size="12" style="stroke:#000;stroke-width:.25mm;fill:#000"><path d="M 75.24 30.6 L 70.68 35.76 Q 68.08 31.96 65.2 28.6 Q 62.32 25.24 59.36 22.64 Q 55.68 26.6 51.28 29.84 Q 46.88 33.08 41.8 35.72 L 39.72 33.12 A 90.642 90.642 0 0 0 47.622 27.267 A 70.287 70.287 0 0 0 53.46 21.84 A 43.385 43.385 0 0 0 60.352 12.458 A 39.36 39.36 0 0 0 62.04 8.92 L 45.52 8.92 L 44.32 5.04 L 66.16 3.4 L 69.4 7.6 A 54.914 54.914 0 0 1 62.526 18.966 A 50.881 50.881 0 0 1 61.52 20.2 Q 63.68 21.56 66.06 23.28 Q 68.44 25 70.8 26.86 A 87.237 87.237 0 0 1 74.716 30.131 A 78.624 78.624 0 0 1 75.24 30.6 Z M 273.28 32.8 L 268.28 36.16 Q 267.6 34.88 266.96 33.74 Q 266.32 32.6 265.64 31.56 A 280.161 280.161 0 0 1 259.869 32.839 A 246.371 246.371 0 0 1 258.02 33.22 Q 254.36 33.96 250.7 34.6 Q 247.04 35.24 243 35.88 L 241.84 30.28 Q 243 30.24 244.18 30.22 Q 245.36 30.2 246.52 30.16 Q 247.8 28.52 248.94 26.82 Q 250.08 25.12 251 23.4 L 241.8 23.4 L 241 20.08 L 273.68 18.4 L 273.68 23.4 L 257.56 23.4 Q 256.08 25.2 254.46 26.86 A 59.098 59.098 0 0 1 251.61 29.597 A 53.966 53.966 0 0 1 251.2 29.96 Q 254.28 29.8 257.46 29.56 A 333.82 333.82 0 0 0 263.79 29.02 A 363.807 363.807 0 0 0 264 29 Q 263.48 28.2 262.9 27.38 Q 262.32 26.56 261.72 25.72 L 264.04 24.24 A 70.478 70.478 0 0 1 266.668 26.445 A 87.769 87.769 0 0 1 268.54 28.14 Q 270.88 30.32 273.28 32.8 Z M 110.76 33.84 L 105.72 34.44 L 105.72 31.16 L 84.04 31.16 L 83.2 27.36 L 105.72 25.68 L 105.72 10.32 L 84.4 10.32 L 83.56 6.48 L 111.76 4.8 L 110.76 33.84 Z M 24.48 30.76 L 18.68 35.12 A 115.38 115.38 0 0 0 15.839 29.934 A 90.431 90.431 0 0 0 13.62 26.32 A 69.462 69.462 0 0 0 8.708 19.671 A 77.632 77.632 0 0 0 7.8 18.6 L 10.4 16.8 Q 12.16 18.28 13.92 19.82 Q 15.68 21.36 17.4 23.08 Q 20.32 19.92 22.82 16.58 A 46.935 46.935 0 0 0 25.034 13.365 A 34.209 34.209 0 0 0 26.8 10.2 L 1.2 10.2 L 0 6.4 L 31.52 4.88 L 34.88 9.4 A 81.071 81.071 0 0 1 29.196 16.529 A 72.646 72.646 0 0 1 27.82 18.02 Q 24.12 21.92 19.84 25.48 Q 21 26.72 22.18 28.04 Q 23.36 29.36 24.48 30.76 Z M 233.92 12.32 L 230.64 12.6 L 232.88 17.16 L 231.84 17.26 Q 230.91 17.35 229.435 17.439 A 141.224 141.224 0 0 1 229.08 17.46 Q 227.36 17.56 225.28 17.66 Q 223.2 17.76 221.16 17.76 A 3.314 3.314 0 0 1 220.132 17.607 A 2.749 2.749 0 0 1 219 16.9 A 2.944 2.944 0 0 1 218.345 15.902 A 2.81 2.81 0 0 1 218.16 14.88 L 218.16 9.36 L 223.32 9.68 L 222.6 12.96 L 222.6 13.08 A 0.71 0.71 0 0 0 222.724 13.478 A 0.983 0.983 0 0 0 222.82 13.6 A 0.735 0.735 0 0 0 223.078 13.786 A 0.722 0.722 0 0 0 223.36 13.84 L 223.44 13.84 A 89.597 89.597 0 0 0 224.499 13.742 Q 225.81 13.611 226.537 13.489 A 10.705 10.705 0 0 0 226.7 13.46 Q 227.486 13.316 227.809 12.992 A 0.803 0.803 0 0 0 227.94 12.82 A 1.84 1.84 0 0 0 228.082 12.49 Q 228.193 12.152 228.251 11.657 A 7.994 7.994 0 0 0 228.28 11.36 L 229.48 11.36 L 229.48 8.96 L 204.92 8.96 L 204.92 13.56 L 200.48 13.96 L 199.76 4.32 L 204.92 4.32 L 204.92 5.72 L 215.2 5.24 Q 214.76 4.8 214.48 4.22 Q 214.2 3.64 214.2 3 A 2.886 2.886 0 0 1 215.053 0.908 A 3.508 3.508 0 0 1 215.08 0.88 A 2.886 2.886 0 0 1 217.161 0.001 A 3.472 3.472 0 0 1 217.2 0 A 2.886 2.886 0 0 1 219.292 0.853 A 3.508 3.508 0 0 1 219.32 0.88 A 2.886 2.886 0 0 1 220.2 2.962 A 3.472 3.472 0 0 1 220.2 3 Q 220.2 4.16 219.4 5.04 L 234.64 4.32 L 233.92 12.32 Z M 191.28 35.56 L 187.16 36.36 L 187.16 21.36 L 183.16 21.36 Q 182.64 25.2 181.3 28.98 A 33.335 33.335 0 0 1 177.927 35.819 A 37.201 37.201 0 0 1 177.6 36.32 L 175.48 35.16 Q 176.52 32.6 177.1 30.4 Q 177.68 28.2 178 26.04 Q 178.32 23.88 178.48 21.36 L 175.36 21.36 L 174.56 17.92 L 178.64 17.56 L 179 7.16 L 176 7.16 L 175.2 3.72 L 194.8 1.96 L 194.8 7.16 L 191.96 7.16 L 191.72 16.44 L 195.2 16.16 L 195.2 21.36 L 191.6 21.36 L 191.28 35.56 Z M 231.76 25.64 L 234.4 34.92 L 233.4 35 Q 232.4 35.08 230.76 35.22 Q 229.12 35.36 227.18 35.46 A 73.553 73.553 0 0 1 223.458 35.56 A 67.838 67.838 0 0 1 223.4 35.56 A 4.4 4.4 0 0 1 222.298 35.429 A 3.248 3.248 0 0 1 220.92 34.7 A 2.839 2.839 0 0 1 219.98 32.804 A 3.97 3.97 0 0 1 219.96 32.4 Q 219.96 32.28 219.98 32.16 Q 220 32.04 220 31.92 L 220.96 24.6 L 216.44 24.6 A 15.264 15.264 0 0 1 214.949 27.913 A 13.338 13.338 0 0 1 213.9 29.4 A 15.716 15.716 0 0 1 211.583 31.689 A 20.46 20.46 0 0 1 209.6 33.1 A 35.402 35.402 0 0 1 207.068 34.541 Q 205.74 35.231 204.206 35.909 A 63.736 63.736 0 0 1 203.16 36.36 L 201.8 34.24 Q 205.72 31.92 208 29.72 Q 210.28 27.52 211.32 24.6 L 201.88 24.6 L 201.08 21.44 L 212.2 20.72 L 212.92 15.4 L 218.04 16.2 L 217.36 20.36 L 226.76 19.76 L 224.88 30 Q 224.88 30.027 224.871 30.063 A 0.516 0.516 0 0 1 224.86 30.1 Q 224.84 30.16 224.84 30.24 A 1.505 1.505 0 0 0 224.886 30.63 Q 225.05 31.24 225.8 31.24 L 225.96 31.24 Q 226.883 31.174 227.467 31.054 A 4.877 4.877 0 0 0 227.7 31 A 1.707 1.707 0 0 0 228.279 30.735 A 1.571 1.571 0 0 0 228.66 30.34 Q 228.958 29.903 229.133 28.99 A 9.101 9.101 0 0 0 229.18 28.72 Q 229.36 27.6 229.56 25.64 L 231.76 25.64 Z M 173.68 32.36 L 166.68 32.36 L 166.68 34.36 L 162.76 35.16 L 162.32 21.12 L 160.52 23.6 L 159.2 22.36 Q 160.48 19.52 161.4 17.04 Q 162.32 14.56 163 12.06 Q 163.68 9.56 164.2 6.76 L 160 6.76 L 159.2 3.08 L 174.84 1.88 L 174.84 6.76 L 169.64 6.76 A 49.359 49.359 0 0 1 168.624 9.637 A 43.407 43.407 0 0 1 168.26 10.54 A 43.042 43.042 0 0 1 167.312 12.664 A 36.185 36.185 0 0 1 166.72 13.84 L 174.28 12.72 L 173.68 32.36 Z M 275.2 10.76 L 272.88 16.44 Q 269.72 15 267.04 13.52 Q 264.36 12.04 261.86 10.36 A 75.102 75.102 0 0 1 258.076 7.638 A 85.088 85.088 0 0 1 256.8 6.64 A 68.202 68.202 0 0 1 253.091 9.655 A 60.17 60.17 0 0 1 251.86 10.56 Q 249.4 12.32 246.7 13.82 Q 244 15.32 240.76 16.84 L 239.24 14.56 A 70.585 70.585 0 0 0 242.95 12.124 A 56.901 56.901 0 0 0 245.22 10.44 Q 247.88 8.36 250.28 5.92 Q 252.68 3.48 255.16 0.4 L 261.2 2.52 L 259.28 4.36 A 76.641 76.641 0 0 0 264.286 6.837 A 64.271 64.271 0 0 0 267.2 8.06 Q 271.04 9.56 275.2 10.76 Z M 151.92 30.12 L 150.28 36.32 Q 145.52 34.6 140.48 33.2 Q 135.44 31.8 130.58 30.78 A 134.382 134.382 0 0 0 125.027 29.731 A 107.307 107.307 0 0 0 121.48 29.2 L 122.2 25.88 A 120.529 120.529 0 0 1 127.777 26.329 A 147.119 147.119 0 0 1 131.34 26.74 Q 136.2 27.36 141.42 28.22 Q 146.64 29.08 151.92 30.12 Z M 149.6 6.12 L 148.32 12 Q 143.04 10.24 137.46 8.98 A 108.178 108.178 0 0 0 127.191 7.163 A 99.353 99.353 0 0 0 126.52 7.08 L 127.2 3.72 A 127.412 127.412 0 0 1 134.67 4.177 A 149.634 149.634 0 0 1 138.24 4.54 Q 144.04 5.2 149.6 6.12 Z M 203.84 19.32 L 202.8 17.2 A 44.688 44.688 0 0 0 204.75 15.902 A 35.096 35.096 0 0 0 206.1 14.9 Q 207.56 13.76 208.86 12.38 Q 210.16 11 211.56 9.16 L 216.24 12.44 A 59.936 59.936 0 0 1 213.918 14.152 A 46.83 46.83 0 0 1 212.2 15.3 Q 210.28 16.52 208.28 17.46 A 55.049 55.049 0 0 1 205.891 18.512 A 70.497 70.497 0 0 1 203.84 19.32 Z M 141.48 17.56 Q 141.48 18.84 140.84 19.94 Q 140.2 21.04 139.12 21.68 Q 138.04 22.32 136.72 22.32 Q 135.44 22.32 134.34 21.68 Q 133.24 21.04 132.6 19.94 Q 131.96 18.84 131.96 17.56 Q 131.96 16.24 132.6 15.16 Q 133.24 14.08 134.34 13.44 Q 135.44 12.8 136.72 12.8 Q 138.04 12.8 139.12 13.44 Q 140.2 14.08 140.84 15.16 Q 141.48 16.24 141.48 17.56 Z M 169.92 27.8 L 169.92 17.88 L 166.68 17.88 L 166.68 28.76 L 169.92 27.8 Z M 187.16 16.84 L 187.16 7.16 L 183.84 7.16 L 183.48 17.16 L 187.16 16.84 Z M 259.854 16.306 A 3.571 3.571 0 0 0 260.92 13.72 A 3.659 3.659 0 0 0 260.709 12.468 A 3.708 3.708 0 0 0 259.82 11.1 A 4.47 4.47 0 0 0 259.786 11.066 A 3.571 3.571 0 0 0 257.2 10 A 3.659 3.659 0 0 0 255.948 10.212 A 3.708 3.708 0 0 0 254.58 11.1 A 4.47 4.47 0 0 0 254.546 11.135 A 3.571 3.571 0 0 0 253.48 13.72 A 3.659 3.659 0 0 0 253.691 14.973 A 3.708 3.708 0 0 0 254.58 16.34 A 4.47 4.47 0 0 0 254.614 16.374 A 3.571 3.571 0 0 0 257.2 17.44 A 3.659 3.659 0 0 0 258.452 17.229 A 3.708 3.708 0 0 0 259.82 16.34 A 4.47 4.47 0 0 0 259.854 16.306 Z" vector-effect="non-scaling-stroke"/></g></svg>